<?xml version="1.0" standalone="no"?><!DOCTYPE svg PUBLIC "-//W3C//DTD SVG 1.1//EN" "http://www.w3.org/Graphics/SVG/1.1/DTD/svg11.dtd"><svg t="1623316394081" class="icon" viewBox="0 0 1024 1024" version="1.1" xmlns="http://www.w3.org/2000/svg" p-id="5254" xmlns:xlink="http://www.w3.org/1999/xlink" width="200" height="200"><defs><style type="text/css"></style></defs><path d="M479.161753 28.980038v734.207344a28.980038 28.980038 0 1 0 57.960077 0V28.980038a28.980038 28.980038 0 1 0-57.960077 0zM987.382756 962.233878H32.861432a28.980038 28.980038 0 0 0 0 57.960077h954.525188a28.980038 28.980038 0 0 0 0-57.960077z" p-id="5255" fill="#ffffff"></path><path d="M197.321218 553.584423l286.813509 286.809645a28.980038 28.980038 0 0 0 40.985503-40.981638L238.306721 512.598921a28.980038 28.980038 0 0 0-40.981639 40.985502z" p-id="5256" fill="#ffffff"></path><path d="M526.522864 840.390204l286.809644-286.809645a28.980038 28.980038 0 1 0-40.981638-40.985502l-286.813509 286.813509a28.980038 28.980038 0 1 0 40.985503 40.981638z" p-id="5257" fill="#ffffff"></path></svg>