<?xml version="1.0" standalone="no"?><!DOCTYPE svg PUBLIC "-//W3C//DTD SVG 1.1//EN" "http://www.w3.org/Graphics/SVG/1.1/DTD/svg11.dtd"><svg t="1623316384392" class="icon" viewBox="0 0 1024 1024" version="1.1" xmlns="http://www.w3.org/2000/svg" p-id="4418" xmlns:xlink="http://www.w3.org/1999/xlink" width="200" height="200"><defs><style type="text/css"></style></defs><path d="M541.728 202.752l3.584 3.296 277.504 282.88c12.256 12.48 12.256 32.736 0 45.216a30.976 30.976 0 0 1-41.44 2.688l-2.976-2.688-234.976-239.488v633.92a31.392 31.392 0 1 1-62.784 0V294.624l-235.04 239.552a30.976 30.976 0 0 1-41.44 2.688l-2.976-2.688a32.448 32.448 0 0 1-2.592-42.24l2.592-3.008L478.72 206.08a46.432 46.432 0 0 1 63.04-3.296zM864 64a32 32 0 0 1 0 64H160a32 32 0 1 1 0-64h704z" fill="#ffffff" p-id="4419"></path></svg>