<?xml version="1.0" standalone="no"?><!DOCTYPE svg PUBLIC "-//W3C//DTD SVG 1.1//EN" "http://www.w3.org/Graphics/SVG/1.1/DTD/svg11.dtd"><svg t="1623316404212" class="icon" viewBox="0 0 1024 1024" version="1.1" xmlns="http://www.w3.org/2000/svg" p-id="5668" xmlns:xlink="http://www.w3.org/1999/xlink" width="200" height="200"><defs><style type="text/css"></style></defs><path d="M413.58336 452.41856l-50.4832 50.94912 27.57632 27.57632a35.54816 35.54816 0 0 0 50.4832 0 35.54816 35.54816 0 0 0 0-50.4832l-27.57632-28.04224zM322.43712 543.56992l-50.4832 50.4832 27.57632 27.57632a35.54816 35.54816 0 0 0 50.4832 0 35.54816 35.54816 0 0 0 0-50.4832l-27.57632-27.57632zM231.29088 634.71616l-50.4832 50.4832 27.57632 27.57632a35.54816 35.54816 0 0 0 50.4832 0 35.54816 35.54816 0 0 0 0-50.4832l-27.57632-27.57632zM687.02208 178.97984l-50.4832 50.4832 27.57632 27.57632a35.54816 35.54816 0 0 0 50.4832 0 35.54816 35.54816 0 0 0 0-50.4832l-27.57632-27.57632zM504.7296 361.27232l-50.4832 50.94912 27.57632 27.57632a35.54816 35.54816 0 0 0 50.4832 0 35.54816 35.54816 0 0 0 0-50.4832l-27.57632-28.04224z" fill="#ffffff" p-id="5669"></path><path d="M959.99488 279.94624L747.78624 67.7376a35.54816 35.54816 0 0 0-50.4832 0L64.42496 700.6208a35.54816 35.54816 0 0 0 0 50.4832l211.74272 211.74272a35.54816 35.54816 0 0 0 50.4832 0l633.344-632.4224c13.55264-14.02368 13.55264-36.45952 0-50.47808zM301.87008 887.12192L140.61056 725.8624l35.52256-35.52256 146.76992-146.76992 40.66304-40.66304 50.4832-50.4832 40.66304-40.66304 50.4832-50.4832 40.66304-40.66304 50.4832-50.4832 40.66304-40.66304 50.4832-50.4832 35.52256-35.52256 160.7936 161.72544L301.87008 887.12192z" fill="#ffffff" p-id="5670"></path><path d="M595.87584 270.12608l-50.4832 50.4832 27.57632 27.57632a35.54816 35.54816 0 0 0 50.4832 0 35.54816 35.54816 0 0 0 0-50.4832l-27.57632-27.57632z" fill="#ffffff" p-id="5671"></path></svg>